<svg width="21" height="20" viewBox="0 0 21 20" fill="none" xmlns="http://www.w3.org/2000/svg">
<path d="M0 10C0 9.39062 0.515625 8.875 1.125 8.875L17.0625 8.875L10.8281 2.92188C10.4063 2.5 10.3594 1.79688 10.8281 1.32812C11.25 0.90625 11.9531 0.859375 12.4219 1.32812L20.6719 9.20312C20.8594 9.39062 21 9.67188 21 10C21 10.3281 20.8594 10.6094 20.6719 10.7969L12.4219 18.6719C11.9531 19.0938 11.25 19.0938 10.8281 18.6719C10.3594 18.2031 10.4063 17.5 10.8281 17.0781L17.0625 11.125L1.125 11.125C0.515625 11.125 0 10.6094 0 10Z" fill="#372216"/>
</svg>
