<?xml version="1.0" encoding="utf-8"?>
<!-- Generator: Adobe Illustrator 23.0.1, SVG Export Plug-In . SVG Version: 6.00 Build 0)  -->
<svg version="1.1" xmlns="http://www.w3.org/2000/svg" xmlns:xlink="http://www.w3.org/1999/xlink" x="0px" y="0px"
	 viewBox="0 0 31.48 31.5" style="enable-background:new 0 0 31.48 31.5;" xml:space="preserve">
<style type="text/css">
	.st0{display:none;}
	.st1{display:inline;fill:#372216;}
	.st2{fill:#372216;}
</style>
<g id="Camada_1" class="st0">
	<path class="st1" d="M19.92,0.5c-4.71,0-9.77,2.67-13.64,6.54C-6.09,19.41,1.15,32,11.06,32c4.71,0,9.77-2.67,13.64-6.54
		C37.08,13.09,29.76,0.5,19.92,0.5z M7.9,8.59c3.66-3.66,8.16-5.84,12.02-5.84h0.07c2.11,0,4.15,0.91,5.63,2.39
		c0,0.07,0.07,0.07,0.07,0.07c-1.34,4.36-4.29,9.28-10.83,10.48c-5.63,1.05-9.63,4.29-11.67,9.35C0.58,21.73,1.99,14.49,7.9,8.59z
		 M23.08,23.91c-3.66,3.66-8.16,5.84-12.02,5.84c-3.3,0-4.43-1.13-6.12-2.81c1.62-4.92,5.13-8.09,10.34-9.07
		c5.84-1.05,9.98-4.78,12.16-10.83C31.31,11.54,27.58,19.41,23.08,23.91z"/>
</g>
<g id="Camada_2">
	<path class="st2" d="M19.92,0.5c-4.71,0-9.77,2.67-13.64,6.54C-6.09,19.41,1.15,32,11.06,32c4.71,0,9.77-2.67,13.64-6.54
		C37.08,13.09,29.76,0.5,19.92,0.5z M7.9,8.59c3.66-3.66,8.16-5.84,12.02-5.84h0.07c2.11,0,4.15,0.91,5.63,2.39
		c0,0.07,0.07,0.07,0.07,0.07c-1.34,4.36-4.29,9.28-10.83,10.48c-5.63,1.05-9.63,4.29-11.67,9.35C0.58,21.73,1.99,14.49,7.9,8.59z
		 M23.08,23.91c-3.66,3.66-8.16,5.84-12.02,5.84c-3.3,0-4.43-1.13-6.12-2.81c1.62-4.92,5.13-8.09,10.34-9.07
		c5.84-1.05,9.98-4.78,12.16-10.83C31.31,11.54,27.58,19.41,23.08,23.91z"/>
</g>
</svg>
